<svg xmlns="http://www.w3.org/2000/svg" viewBox="0 0 512 512">
  <defs>
    <linearGradient id="bg" x1="80" x2="432" y1="64" y2="448" gradientUnits="userSpaceOnUse">
      <stop offset="0" stop-color="#1f5363"/>
      <stop offset="1" stop-color="#09131c"/>
    </linearGradient>
  </defs>
  <rect width="512" height="512" rx="120" fill="url(#bg)"/>
  <circle cx="396" cy="122" r="50" fill="#67d8ff" opacity=".3"/>
  <path fill="#f5cf6b" d="M108 212c0-30 24-54 54-54h74c16 0 30 7 40 20l18 22h118c30 0 54 24 54 54v102c0 30-24 54-54 54H162c-30 0-54-24-54-54V212Z"/>
  <path fill="#fff0be" d="M108 212c0-30 24-54 54-54h74c16 0 30 7 40 20l18 22h118c18 0 34 9 44 24H108v-12Z"/>
  <rect width="228" height="24" x="144" y="264" fill="#b1801c" opacity=".38" rx="12"/>
  <rect width="164" height="24" x="144" y="312" fill="#b1801c" opacity=".26" rx="12"/>
</svg>
