<svg xmlns="http://www.w3.org/2000/svg" viewBox="0 0 512 512">
  <defs>
    <linearGradient id="bg" x1="88" x2="424" y1="80" y2="440" gradientUnits="userSpaceOnUse">
      <stop offset="0" stop-color="#2f3d7c"/>
      <stop offset="1" stop-color="#101522"/>
    </linearGradient>
  </defs>
  <rect width="512" height="512" rx="120" fill="url(#bg)"/>
  <circle cx="392" cy="128" r="46" fill="#7ca7ff" opacity=".28"/>
  <path fill="#fbf5e8" d="M168 104h130l90 90v214c0 18-14 32-32 32H168c-18 0-32-14-32-32V136c0-18 14-32 32-32Z"/>
  <path fill="#d5dfff" d="M298 104v74c0 18 14 32 32 32h58z"/>
  <rect width="176" height="22" x="172" y="242" fill="#5f6c96" rx="11"/>
  <rect width="176" height="22" x="172" y="288" fill="#5f6c96" opacity=".82" rx="11"/>
  <rect width="132" height="22" x="172" y="334" fill="#5f6c96" opacity=".62" rx="11"/>
</svg>
